<svg width="996" height="837" viewBox="0 0 996 837" fill="none" xmlns="http://www.w3.org/2000/svg">
<path d="M700.481 250.96L697.731 271.13L680.731 395.59L652.891 599.41L645.921 650.44C645.39 654.335 643.465 657.907 640.503 660.492C637.541 663.077 633.742 664.501 629.811 664.5H444.161C440.236 664.501 436.442 663.082 433.481 660.506C430.52 657.929 428.592 654.368 428.051 650.48L420.961 599.41L392.651 395.59L375.351 271.04L372.571 251C372.25 248.698 372.426 246.354 373.088 244.126C373.75 241.898 374.882 239.837 376.408 238.084C377.934 236.331 379.818 234.925 381.934 233.962C384.049 232.998 386.346 232.5 388.671 232.5H684.371C686.692 232.501 688.985 232.999 691.098 233.959C693.21 234.92 695.093 236.322 696.619 238.071C698.145 239.819 699.279 241.874 699.945 244.097C700.611 246.32 700.794 248.66 700.481 250.96V250.96Z" fill="#6667AB"/>
<path d="M665.74 178.5H408.26C399.28 178.5 392 185.78 392 194.76V216.24C392 225.22 399.28 232.5 408.26 232.5H665.74C674.721 232.5 682 225.22 682 216.24V194.76C682 185.78 674.721 178.5 665.74 178.5Z" fill="#2F2E41"/>
<path opacity="0.1" d="M682 204.02V216.24C682 220.552 680.287 224.688 677.238 227.738C674.189 230.787 670.053 232.5 665.74 232.5H408.26C403.948 232.5 399.812 230.787 396.763 227.738C393.714 224.688 392.001 220.552 392 216.24V204.05C488.449 213.24 585.554 213.23 682 204.02V204.02Z" fill="black"/>
<path opacity="0.1" d="M699.556 243H699.558C699.553 242.988 699.547 242.976 699.543 242.964C699.115 241.845 698.564 240.776 697.901 239.778L697.9 239.775C697.704 239.481 697.496 239.196 697.282 238.915C697.21 238.821 697.137 238.729 697.063 238.636C696.44 237.854 695.746 237.131 694.991 236.476C694.822 236.329 694.652 236.184 694.477 236.045C694.281 235.888 694.084 235.735 693.881 235.587C693.626 235.402 693.364 235.228 693.098 235.058C692.889 234.924 692.679 234.793 692.463 234.668C692.13 234.476 691.789 234.294 691.441 234.124C691.275 234.044 691.107 233.969 690.938 233.894C690.606 233.747 690.267 233.61 689.923 233.486C689.784 233.435 689.648 233.38 689.508 233.333C689.032 233.174 688.545 233.037 688.049 232.922C687.928 232.894 687.804 232.874 687.681 232.849C687.275 232.765 686.864 232.696 686.447 232.643C686.297 232.624 686.146 232.604 685.994 232.589C685.46 232.536 684.921 232.5 684.372 232.5L684.371 232.5H388.671C386.349 232.508 384.056 233.011 381.945 233.977C379.833 234.942 377.952 236.348 376.428 238.099C374.904 239.85 373.771 241.906 373.105 244.13C372.44 246.355 372.257 248.695 372.569 250.996L373.039 254.377L375.351 271.04L375.353 271.04L392.652 395.59H392.651L415.359 559.08L428.053 650.478C428.593 654.365 430.521 657.926 433.481 660.503C436.441 663.08 440.233 664.5 444.157 664.5H452.968C452.532 663.364 452.225 662.182 452.053 660.978L443.502 599.41H652.891L680.731 395.59H415.194L398.172 273.034C497.89 281.121 598.123 280.484 697.731 271.13L700.481 250.96C700.847 248.271 700.529 245.533 699.556 243Z" fill="black"/>
<path d="M723.742 259.5C599.617 273.049 474.385 273.049 350.26 259.5C345.948 259.5 341.812 257.787 338.763 254.738C335.714 251.689 334.001 247.553 334.001 243.241V221.759C334.001 217.447 335.714 213.311 338.763 210.262C341.812 207.213 345.948 205.5 350.26 205.5C474.287 220.749 599.715 220.749 723.742 205.5C728.054 205.5 732.19 207.213 735.239 210.262C738.288 213.311 740.001 217.447 740.001 221.759V243.241C740.001 247.553 738.288 251.689 735.239 254.738C732.19 257.787 728.054 259.5 723.742 259.5V259.5Z" fill="#2F2E41"/>
<path d="M660.535 592H410.55C408.306 592 406.135 591.199 404.428 589.742C402.722 588.285 401.591 586.267 401.239 584.05L374.232 413.906C374.018 412.559 374.099 411.183 374.469 409.871C374.838 408.559 375.488 407.343 376.373 406.306C377.258 405.269 378.357 404.437 379.595 403.866C380.833 403.296 382.18 403 383.543 403H689.343C690.714 403 692.069 403.299 693.312 403.877C694.556 404.454 695.659 405.296 696.544 406.343C697.429 407.391 698.075 408.618 698.437 409.941C698.798 411.264 698.867 412.649 698.638 414.001L669.831 584.146C669.459 586.342 668.321 588.336 666.62 589.774C664.918 591.211 662.763 592 660.535 592Z" fill="#2F2E41"/>
</svg>
